Coordinates
version=1
nRows=8
nColumns=46
inDegrees=yes

Units are S.I. units (second, meters, Newtons, ...)
Angles are in degrees.

endheader
time	pelvis_tilt	pelvis_list	pelvis_rotation	pelvis_tx	pelvis_ty	pelvis_tz	bb_angle	bb_tx	bb_ty	bb_tz	hip_flexion_r	hip_adduction_r	hip_rotation_r	knee_angle_r	knee_angle_r_beta	ankle_angle_r	subtalar_angle_r	mtp_angle_r	crank_angle_r	hip_flexion_l	hip_adduction_l	hip_rotation_l	knee_angle_l	knee_angle_l_beta	ankle_angle_l	subtalar_angle_l	mtp_angle_l	crank_angle_l	lumbar_extension	lumbar_bending	lumbar_rotation	arm_flex_r	arm_add_r	arm_rot_r	elbow_flex_r	pro_sup_r	wrist_flex_r	wrist_dev_r	arm_flex_l	arm_add_l	arm_rot_l	elbow_flex_l	pro_sup_l	wrist_flex_l	wrist_dev_l
      5.00000000	    -26.46877237	    -13.67257287	     -1.39574519	      0.38636137	      1.07565248	     -0.21416955	      0.00000000	      0.50000000	      0.00000000	      0.25000000	     60.91639496	      5.72251955	     -8.62321815	    103.78256993	      1.81134755	     12.82567293	      1.44389263	      0.00000000	      0.00000000	     43.31940873	    -19.01725719	      5.28837866	     28.93125743	      0.50494570	     -7.21148340	     -1.38585334	      0.00000000	      0.00000000	    -43.30276896	      5.72761204	      0.80938447	     66.20644357	      7.78787917	     24.40667723	     21.12346516	     46.65717191	      0.00000000	      0.00000000	     42.20386955	    -22.39421190	     11.30363135	     72.50463555	     49.53427770	      0.00000000	      0.00000000
      5.00500000	    -26.73064716	    -14.37639472	     -2.51283995	      0.38626506	      1.07554287	     -0.21560329	      0.00000000	      0.50000000	      0.00000000	      0.25000000	     62.46856247	      6.48224820	     -8.77397649	    105.02969591	      1.83311401	     13.76043919	      1.97801822	      0.00000000	      0.00000000	     42.02956578	    -20.29648372	      4.47062812	     27.26955705	      0.47594356	     -8.78595905	     -1.01814344	      0.00000000	      0.00000000	    -43.24280247	      6.35519856	      1.72470745	     66.35832671	      8.06391062	     24.42309826	     21.32934218	     46.67056416	      0.00000000	      0.00000000	     41.75043453	    -22.75386931	     11.25826919	     72.33414353	     49.49873880	      0.00000000	      0.00000000
      5.01000000	    -27.06039624	    -14.97752764	     -3.71604429	      0.38642344	      1.07547558	     -0.21711322	      0.00000000	      0.50000000	      0.00000000	      0.25000000	     64.04205041	      7.20413557	     -8.84391497	    106.14209974	      1.85252912	     14.55072052	      2.65060126	      0.00000000	      0.00000000	     40.72813215	    -21.53887363	      3.31072088	     25.70596381	      0.44865371	    -10.31422621	     -0.64903239	      0.00000000	      0.00000000	    -43.10015801	      6.94005524	      2.63664562	     66.37646717	      8.33899259	     24.42194160	     21.56427410	     46.68733129	      0.00000000	      0.00000000	     41.23971580	    -22.96265819	     11.21920037	     72.07432055	     49.45085540	      0.00000000	      0.00000000
      5.01500000	    -27.45085280	    -15.44756072	     -5.20575585	      0.38684417	      1.07558708	     -0.21800472	      0.00000000	      0.50000000	      0.00000000	      0.25000000	     65.69101610	      8.14876619	     -8.70191194	    107.12574724	      1.86969700	     15.20615344	      3.44863345	      0.00000000	      0.00000000	     39.31319589	    -22.89589101	      1.59168460	     24.20284174	      0.42241928	    -11.88765985	     -0.13785362	      0.00000000	      0.00000000	    -42.94776238	      7.23805254	      3.60470681	     66.09610504	      8.70433829	     24.39440899	     21.85262421	     46.70687711	      0.00000000	      0.00000000	     40.69147740	    -23.03577883	     11.16375930	     71.54877251	     49.35504702	      0.00000000	      0.00000000
      5.02000000	    -27.65500904	    -15.67628859	     -6.55474957	      0.38734254	      1.07604703	     -0.21935164	      0.00000000	      0.50000000	      0.00000000	      0.25000000	     67.10800340	      8.79887596	     -8.43802170	    107.99697490	      1.88490279	     15.83119288	      4.50714115	      0.00000000	      0.00000000	     37.65262669	    -23.91308206	     -0.39734622	     22.80446196	      0.39801295	    -13.10164742	      0.69767947	      0.00000000	      0.00000000	    -42.84798716	      7.24464829	      5.17616005	     64.81485816	      8.13790389	     21.79387033	     24.65707555	     46.47801048	      0.00000000	      0.00000000	     41.50843247	    -21.88519671	     12.23218373	     69.18966089	     49.00360281	      0.00000000	      0.00000000
      5.02500000	    -28.08014812	    -16.11666617	     -7.65025881	      0.38740681	      1.07624831	     -0.22112837	      0.00000000	      0.50000000	      0.00000000	      0.25000000	     68.73232587	      9.27362910	     -8.61879209	    108.63877751	      1.89610436	     16.19560012	      5.07656302	      0.00000000	      0.00000000	     36.50818664	    -24.86083326	     -1.64297808	     21.63190040	      0.37754789	    -14.43805299	      1.12403575	      0.00000000	      0.00000000	    -42.74061837	      7.87997349	      5.97728687	     64.88945590	      8.36308104	     21.76935365	     24.84157889	     46.49514899	      0.00000000	      0.00000000	     40.96108459	    -21.87426605	     12.19207073	     68.86562565	     48.95243589	      0.00000000	      0.00000000
      5.03000000	    -28.21276381	    -16.32388928	     -8.94122886	      0.38793747	      1.07694216	     -0.22242144	      0.00000000	      0.50000000	      0.00000000	      0.25000000	     70.03358424	      9.88412386	     -8.49139330	    109.19413698	      1.90579721	     16.60838354	      5.91723993	      0.00000000	      0.00000000	     34.84483374	    -25.78260088	     -3.77939094	     20.55935116	      0.35882837	    -15.47847835	      2.17194269	      0.00000000	      0.00000000	    -42.83263779	      8.03777617	      7.20423219	     64.23929405	      8.23023283	     20.66204470	     26.19231749	     46.47835929	      0.00000000	      0.00000000	     40.85883389	    -20.94659358	     10.53770734	     67.84470777	     48.62992359	      0.00000000	      0.00000000
      5.03500000	    -28.34733361	    -16.45634019	     -9.95279688	      0.38807159	      1.07764708	     -0.22410966	      0.00000000	      0.50000000	      0.00000000	      0.25000000	     71.34590020	     10.19284075	     -8.44434917	    109.61786713	      1.91319270	     16.82464766	      6.67986389	      0.00000000	      0.00000000	     33.38789339	    -26.38734060	     -5.51548691	     19.67977018	      0.34347679	    -16.48009197	      2.89319825	      0.00000000	      0.00000000	    -43.02325108	      8.34312084	      7.87782851	     64.08987617	      8.53422578	     20.18696178	     26.94895771	     46.49931191	      0.00000000	      0.00000000	     40.78147292	    -20.84085938	     11.57696685	     66.97226516	     48.59255761	      0.00000000	      0.00000000
